<svg xmlns="http://www.w3.org/2000/svg" style="display: none;">

<g id="common_info">

	<svg id="Navigator-logo" viewBox="0 0 320 43"><defs></defs><title>Navigator-logo</title><path d="M464.46,571.2v-5.95a5.49,5.49,0,0,0,2.17-1,5.56,5.56,0,0,0,2.17-2.53,8.41,8.41,0,0,0,.79-3.29,6.6,6.6,0,0,0-1.72-4.57,6.17,6.17,0,0,0-3.41-1.73v-5.66h2.64a16.22,16.22,0,0,1,8.08,1.88,11.59,11.59,0,0,1,5.11,4.73,13.11,13.11,0,0,1,1.72,6.29,14.34,14.34,0,0,1-.79,4.41,10.25,10.25,0,0,1-2.63,3.78,12.21,12.21,0,0,1-4,2.67,14.88,14.88,0,0,1-5.59,1h-4.5Zm0-24.72v5.66a9,9,0,0,0-1.71-.15h-3.43v13.39h3.89a6.32,6.32,0,0,0,1.24-.12v5.95h-5.14v16.38H448.16v-41.1h16.3Zm-43.4,42.41v-9.34l3.82-3.94L435.73,578l-5.27-9.92,5.58-9.77-10.87,1.91-4.12-4.53v-9.6c0.5,0,1-.06,1.48-0.06a27.16,27.16,0,0,1,8.39,1.74,19.93,19.93,0,0,1,6.67,4.4,17.24,17.24,0,0,1,4.51,6.46,23.32,23.32,0,0,1,1.87,8.19v0.94a21.39,21.39,0,0,1-10.1,18.43A20.16,20.16,0,0,1,423.61,589C422.73,589,421.88,589,421.05,588.89Zm0-42.83v9.6L417.71,552l-1.55,11-10.09,4.57,9.93,5,1.09,11,3.95-4.09v9.34a23.66,23.66,0,0,1-7.37-1.79,19.28,19.28,0,0,1-7-5.19,22.27,22.27,0,0,1-4.2-6.78q-0.35-.9-0.61-1.78V561.81a20.25,20.25,0,0,1,2.32-5.58,18.8,18.8,0,0,1,8.07-7.56,22.08,22.08,0,0,1,8.77-2.62h0Zm-19.16,6.39h0.77v-6h-0.77v6Zm0-6v6H391.48v35.13H380.3V552.45h-7.53v-6h29.11Zm0,15.33a25.69,25.69,0,0,0-.77,6.39,18.41,18.41,0,0,0,.77,5.15V561.81h0Zm-29.11,25.77h3.79l-3.25-9-0.54-1.47v10.45Zm0-41.1v6H369v-6h3.8Zm0,30.65-11.25-30.65h-8.7v9.92h0l4.82,13.85h-4.82v5.36h6.83l4.35,12h8.77V577.13Zm-20-30.65v9.92L348,570.24h4.81v5.36h-6.36l-3.89,12h-2.48V576.25l7.14-20.8,3.11-9h2.48Zm-12.73,6H344v-6h-3.88v6Zm-74.68,14.34c2.63-.94,4.5-2.06,5.59-3.47a8.36,8.36,0,0,0,1.71-5.51v-1.42A10,10,0,0,0,268,549c-2.63-1.74-6.37-2.52-11.49-2.52h-0.7v5.61a5.8,5.8,0,0,1,2.25.85,4.35,4.35,0,0,1,2,2.36,6.63,6.63,0,0,1,.78,3,5.82,5.82,0,0,1-1.39,3.94,4.61,4.61,0,0,1-3.65,1.57v5.71a7.12,7.12,0,0,1,2.09.74,7,7,0,0,1,3.72,6,5.72,5.72,0,0,1-1.71,4.09,6.15,6.15,0,0,1-4.11,1.69v5.56H260a21.77,21.77,0,0,0,6.68-1,11,11,0,0,0,5.27-3,8.15,8.15,0,0,0,2.33-5.52,13,13,0,0,0-1.71-6.45c-1.09-1.89-3.42-3.61-7.14-4.87h0Zm74.68-20.31v6H328.92v35.13H317.73v-41.1h22.36Zm0,29.77-3.89,11.33h3.89V576.25h0Zm-50.31-4.74-1.09,3.94v-29H277.52v41.1h12.26l10.09-27.39,1.09-3.79-0.16,31.19h11.33v-41.1H299.72Zm-33.92-25H239.63v41.1h16.23V582c-0.37,0-.76,0-1.17,0h-3.88V569.31h3a10.82,10.82,0,0,1,2.09.2v-5.71h-5V552h3.88a6.67,6.67,0,0,1,1.17.1v-5.61h0ZM214.71,575.6v-5.36h4.89l-4.82-13.85-0.07.22V546.48h8.77l11.8,32.12,3.26,9H226l-4.5-12h-6.76Zm0-29.12v10.13l-4.89,13.63h4.89v5.36h-6.29l-4,12h-6.21l11-32.13,3.11-9h2.4ZM185.29,563.8H173.19V546.48H162v41.1h11.19V569.31h12.11v18.27h11.33v-41.1H185.29V563.8Z" transform="translate(-162 -546)"/></svg>


	<svg id="guarantee" viewBox="0 0 50 56"><defs></defs><title>guarantee</title><path d="M12,581h9v3H12v-3h0Zm0-7H32v3H12v-3h0Zm9,22v-3H4s-1,0-1,0V553s0,0,0,0H7v-3H2a1.78,1.78,0,0,0-2,2v42a1.78,1.78,0,0,0,2,2H21Zm15-43v24h3V552a1.78,1.78,0,0,0-2-2H32v3h4a1,1,0,0,1,0,.29V553ZM7,581h3v3H7v-3H7Zm0-7h3v3H7v-3H7Zm0-7h3v3H7v-3H7Zm0-7h3v3H7v-3Zm5,7H32v3H12v-3Zm0.06-7H32v3H12.06v-3ZM16,548H29a1.16,1.16,0,0,1,1,1l1,6a1,1,0,0,1-1,1H9a1,1,0,0,1-1-1l1-6a1.16,1.16,0,0,1,1-1h6Zm4,0a2,2,0,1,1-2,2,2,2,0,0,1,2-2h0Zm6,34v17H43v-7.33L46,589v11a1.7,1.7,0,0,1-2,2H25.38A2.47,2.47,0,0,1,23,599.3V581a1.74,1.74,0,0,1,2-2H44l-3,3H26Zm24,1v-7L35,589.87,28,584v7l7,6Zm-6-4" transform="translate(0 -546)"/><path d="M20,546a4,4,0,1,0,4,4A4,4,0,0,0,20,546Zm0,6a2,2,0,1,1,2-2A2,2,0,0,1,20,552Z" transform="translate(0 -546)"/></svg>

	<svg id="discounts" viewBox="0 0 26 55.89"><defs><style>.cls-1{fill:#fbca0b;fill-rule:evenodd;}.cls-2{fill:#263238;}</style></defs><title>discounts</title><path class="cls-1" d="M13.13,549a14.77,14.77,0,0,0-3.81,10A5.59,5.59,0,0,1,12,558a13,13,0,0,1,3.14-7.43c3.45-3.84,8.35-1.51,7.34,3.48a13.46,13.46,0,0,1-3.07,5.86c-1.42,1.61-3.09,2.79-4.53,2.92a2.42,2.42,0,0,1-2.14-.89A2.17,2.17,0,0,0,11,564a5,5,0,0,0,3.42,1.48,5.22,5.22,0,0,0,1.06-.07,2.84,2.84,0,1,1-.11-3.27,5.3,5.3,0,0,0,1.6-1.21c-2.47-2.89-6.65-2-9,1.09l-7.05,9.17A5.1,5.1,0,0,0,0,574v27a0.91,0.91,0,0,0,1,1l24,0a0.94,0.94,0,0,0,1-1V574a4.89,4.89,0,0,0-.88-2.8L19,563.58a17.59,17.59,0,0,0,2.51-2,15.84,15.84,0,0,0,3.68-7.07C26.74,546.88,18.43,543.1,13.13,549Z" transform="translate(0 -546.11)"/><path class="cls-2" d="M8,589v-2H6v-3H8v-7.54l0.91-.17c0.35-.06.73-0.11,1.12-0.14l1.19-.09c0.4,0,.77,0,1.14,0a15.72,15.72,0,0,1,3.1.28,7.49,7.49,0,0,1,2.41.9,4.31,4.31,0,0,1,1.57,1.61,5,5,0,0,1,.55,2.43,4.5,4.5,0,0,1-1.95,4A10.39,10.39,0,0,1,12.23,587h-0.3v2h6v3h-6v2H8v-2H6v-3H8Zm4.54-10a5.32,5.32,0,0,0-.54,0v5h0.23c1.83,0,3.77,0,3.77-2.65C16,579,13.94,579,12.54,579Z" transform="translate(0 -546.11)"/></svg>

	<svg id="discounts-2" viewBox="0 0 26.01 55.9"><defs></defs><title>discounts-2</title><path  d="M12.54,32.89H12v5h0.23c1.83,0,3.77,0,3.77-2.65C16,32.89,13.94,32.89,12.54,32.89Z" transform="translate(0.01 0)"/><path  d="M25.12,25.09L19,17.47a17.59,17.59,0,0,0,2.51-2A15.84,15.84,0,0,0,25.19,8.4C26.74,0.77,18.43-3,13.13,2.89a14.77,14.77,0,0,0-3.81,10,5.59,5.59,0,0,1,2.68-1,13,13,0,0,1,3.14-7.43c3.45-3.84,8.35-1.51,7.34,3.48a13.46,13.46,0,0,1-3.07,5.86c-1.42,1.61-3.09,2.79-4.53,2.92a2.42,2.42,0,0,1-2.14-.89A2.17,2.17,0,0,0,11,17.89a5,5,0,0,0,3.42,1.48,5.22,5.22,0,0,0,1.06-.07A2.84,2.84,0,1,1,15.37,16,5.3,5.3,0,0,0,17,14.82c-2.47-2.89-6.65-2-9,1.09l-7,9.17A5.1,5.1,0,0,0,0,27.89v27a0.91,0.91,0,0,0,.81,1H25a0.94,0.94,0,0,0,1-1v-27A4.89,4.89,0,0,0,25.12,25.09ZM18,39.17a10.39,10.39,0,0,1-5.81,1.72h-0.3v2h6v3h-6v2H8v-2H6v-3H8v-2H6v-3H8V30.35l0.91-.17c0.35-.06.73-0.11,1.12-0.14l1.19-.09h1.14a15.72,15.72,0,0,1,3.1.28,7.49,7.49,0,0,1,2.41.9,4.31,4.31,0,0,1,1.57,1.61A5,5,0,0,1,20,35.17,4.5,4.5,0,0,1,18,39.17Z" transform="translate(0.01 0)"/><svg/>

	<svg id="recreation" viewBox="0 0 52 56"><defs></defs><title>recreation</title><path  d="M22,554.63a8.73,8.73,0,0,1,1.61-5.08,19.6,19.6,0,0,1,3.06-3.18,0.87,0.87,0,0,1,1.1-.24,0.84,0.84,0,0,1,.1,1.13c-1.11,2.69-2.33,4.9.13,7.37,1.32,1.34,3,3.83,3,5.75a7.56,7.56,0,0,1-2.15,5.87c-0.7.82-3.14,2.76-4.61,2.76-0.49,0-.14-2,0.76-2.88,2.57-2.46,2.6-4.19.12-6.71-1.44-1.47-3-2.65-3.12-4.79h0ZM52,580c0,6-8,8.37-12,9a37.1,37.1,0,0,0,3-5c1.94,0,5-.62,5-5,0-1-1.12-2-3-2v-4c3.06,0,7,.88,7,7h0ZM31,596c7.23-4.38,12-14.72,12-23,0-1.5-.46-2-2-2H5c-1.42,0-2,.46-2,2,0.6,8.27,4.66,18.55,12,23H31Z" transform="translate(0 -546)"/><path  d="M15,558.37a6.24,6.24,0,0,1,1.25-3.76,14.85,14.85,0,0,1,2.38-2.35,0.7,0.7,0,0,1,.85-0.18,0.6,0.6,0,0,1,.08.84c-0.86,2-1.81,3.62.1,5.45,1,1,2.33,2.83,2.33,4.25A5.43,5.43,0,0,1,20.33,567c-0.54.61-2.19,2-3.33,2-0.38,0-.36-1.49.33-2.13,2-1.82,2-3.09.09-5-1.12-1.08-2.32-2-2.43-3.54h0Z" transform="translate(0 -546)"/><path  d="M1,52H44a1,1,0,0,1,1,1v0a3,3,0,0,1-3,3H3a3,3,0,0,1-3-3v0a1,1,0,0,1,1-1Z"/></svg>

</g>


<g id="price__list"> 
	 <svg id="battery" viewBox="0 0 48 38"><defs></defs><title>battery</title><path  d="M8,557h9v3H8v-3Zm23,0h2.93v-3H37v3h3v3H37v3H34v-3H31v-3Zm2-20-1,5H16l-1-5H8l-1,5H0v33H48V542H41l-1-5H33Z" transform="translate(0 -537)"/></svg>
	  
	 <svg id="brakers" viewBox="0 0 48 44"><defs></defs><title>brakers</title><path d="M14,556.07A12,12,0,1,0,25.92,544,12,12,0,0,0,14,556.07h0Zm8,0a4,4,0,1,1,4,4,4,4,0,0,1-4-4h0Zm-6,0a2,2,0,1,1,2,2,2,2,0,0,1-2-2h0Zm7.46,9.7a2,2,0,1,1,2.45-1.4,2,2,0,0,1-2.45,1.4h0ZM34,562.37a2,2,0,1,1-.3-2.81,2,2,0,0,1,.3,2.81h0Zm-0.07-12.82a2,2,0,1,1-2.82-.26,2,2,0,0,1,2.82.26h0Zm-10.55-3.28A2,2,0,1,1,22,548.74a2,2,0,0,1,1.38-2.47h0ZM10.6,535.18l0.88-.64,6.65,9.14-0.88.64A14.44,14.44,0,0,0,12.62,562l0.46,1L2.81,567.74l-0.46-1a25.75,25.75,0,0,1,8.25-31.57h0ZM8,568.3l2.58-1.19A19.15,19.15,0,1,0,18,538.66l-1.67-2.31A21.8,21.8,0,0,1,45,544.88,22.07,22.07,0,0,1,37.18,575,21.79,21.79,0,0,1,8,568.3Z" transform="translate(0 -534)"/></svg>

	 <svg id="conditioner" viewBox="0 0 48 48"><defs></defs><title>conditioner</title><path d="M24,532A24,24,0,1,1,0,556a24,24,0,0,1,24-24h0Zm0,4a20,20,0,1,0,20,20,20,20,0,0,0-20-20h0Zm-1.61,32.11V572h3.29v-3.89l3,1.72v-3.66l-3-1.77v-5.61l5,2.81,0,3.46,3.23,1.83v-3.44l3.44,1.95L39,562.6l-3.44-1.95,3-1.72-3.23-1.83-3.08,1.69-5-2.81,4.89-2.76,3.08,1.69,3.23-1.83-3-1.72,3.44-1.95-1.65-2.79-3.44,1.95v-3.44L30.61,547l0,3.46-4.89,2.76v-5.28l3-1.77V542.5l-3,1.72V540H22.39v4.22l-3-1.72v3.66l3,1.77v5.28l-4.67-2.64,0-3.46-3.23-1.83v3.44l-3.73-2.11L9.07,549.4l3.73,2.11-3,1.72L13,555.05l3.08-1.69L20.75,556,16,558.68,12.93,557l-3.23,1.83,3,1.72L9,562.64l1.65,2.79,3.73-2.11v3.43l3.23-1.83,0-3.46,4.74-2.68v5.61l-3,1.77v3.66Z" transform="translate(0 -532)"/></svg>

	 <svg id="cooling-system" viewBox="0 0 48 48"><defs></defs><title>cooling-system</title><path  d="M16.22,603.67A6.62,6.62,0,0,0,18,606.58a6.88,6.88,0,0,1-2.23.33c-2.58,0-5.26-1.67-7.93-1.67S2.67,607,0,607v-3.33c2.67,0,5.26-1.67,7.84-1.67,2.76,0,5.35,1.67,7.93,1.67h0.45ZM27,600v-6h6v-3H27v-5h6v-3H27v-5h6v-3H27v-6c0-4-6-4-6,0v31h6Zm21,14c-2.71,0-5.41-1.67-8.12-1.67S34.65,614,31.94,614s-5.23-1.67-7.94-1.67S18.59,614,15.88,614c-2.53,0-5.23-1.67-7.94-1.67S2.71,614,0,614v-3.33c2.71,0,5.23-1.67,7.94-1.67s5.41,1.67,7.94,1.67c2.71,0,5.41-1.67,8.12-1.67s5.23,1.67,7.94,1.67S37.17,609,39.88,609s5.41,1.67,8.12,1.67V614h0Zm-18-7.67a6.23,6.23,0,0,0,1.51-2.83,5.73,5.73,0,0,0,1.67.17c2.43,0,4.86-1.67,7.37-1.67s5,1.67,7.45,1.67v3.25c-2.43,0-4.94-1.67-7.45-1.67s-4.94,1.67-7.37,1.67A10.23,10.23,0,0,1,30,606.33Z" transform="translate(0 -566)"/><circle  cx="24" cy="36" r="5"/></svg>

	 <svg id="gear" viewBox="0 0 48 48"><defs></defs><title>gear</title><path  d="M33.16,564.22a15.2,15.2,0,0,0,0-4.47L36,558a18.34,18.34,0,0,0-2.45-5.89l-3.26.76a15.2,15.2,0,0,0-3.16-3.15l0.76-3.26A18.33,18.33,0,0,0,22,544l-1.76,2.84a15.2,15.2,0,0,0-4.47,0L14,544a18.34,18.34,0,0,0-5.89,2.45l0.76,3.26a15.21,15.21,0,0,0-3.16,3.17l-3.26-.76A18.32,18.32,0,0,0,0,558l2.84,1.76a15.17,15.17,0,0,0,0,4.47L0,566a18.34,18.34,0,0,0,2.45,5.89l3.26-.76a15.21,15.21,0,0,0,3.17,3.16l-0.76,3.26A18.33,18.33,0,0,0,14,580l1.76-2.84a15.19,15.19,0,0,0,4.47,0L22,580a18.35,18.35,0,0,0,5.89-2.45l-0.76-3.26a15.22,15.22,0,0,0,3.16-3.16l3.26,0.76A18.33,18.33,0,0,0,36,566Zm-12.47,4.24a7,7,0,1,1,3.78-9.15A7,7,0,0,1,20.69,568.46Z" transform="translate(0 -532)"/><path  d="M47.8,544a9.93,9.93,0,0,0,.08-3.46l-1.78-.34a8.25,8.25,0,0,0-.87-2.26l1.09-1.45A10,10,0,0,0,43.94,534l-1.5,1a8.25,8.25,0,0,0-2.22-1L40,532.2a9.92,9.92,0,0,0-3.46-.08l-0.34,1.78a8.25,8.25,0,0,0-2.26.87l-1.45-1.09A9.94,9.94,0,0,0,30,536.06l1,1.5a8.24,8.24,0,0,0-1,2.22l-1.8.25a10,10,0,0,0-.08,3.46l1.78,0.34a8.24,8.24,0,0,0,.87,2.26l-1.09,1.45a10,10,0,0,0,2.39,2.5l1.5-1a8.27,8.27,0,0,0,2.22,1L36,551.8a9.92,9.92,0,0,0,3.46.08l0.34-1.78a8.26,8.26,0,0,0,2.26-.87l1.45,1.09A10,10,0,0,0,46,547.94l-1-1.5a8.24,8.24,0,0,0,1-2.22Zm-7,.93a4,4,0,1,1,.14-5.66A4,4,0,0,1,40.76,544.9Z" transform="translate(0 -532)"/></svg>

	 <svg id="optics" viewBox="0 0 48 34"><defs></defs><title>optics</title><path  d="M27,556.24A51.82,51.82,0,0,1,24,572a18.3,18.3,0,0,1-6,1c-10.21,0-18-7.65-18-17s7.79-17,18-17a30.91,30.91,0,0,1,6,1A51.11,51.11,0,0,1,27,556.24ZM45,547H34a3,3,0,0,1-3-3h0a3,3,0,0,1,3-3H45a3,3,0,0,1,3,3h0A3,3,0,0,1,45,547Zm0,24H34a3,3,0,0,1-3-3h0a3,3,0,0,1,3-3H45a3,3,0,0,1,3,3h0A3,3,0,0,1,45,571Zm0-12H34a3,3,0,0,1-3-3h0a3,3,0,0,1,3-3H45a3,3,0,0,1,3,3h0A3,3,0,0,1,45,559Z" transform="translate(0 -539)"/></svg>

	 <svg id="other" viewBox="0 0 48 32"><defs></defs><title>other</title><path  d="M47.6,547a1.57,1.57,0,0,0-1.6-1H42l-4-4.83a2.77,2.77,0,0,0-1-.78,139.07,139.07,0,0,0-20.59,0,2.13,2.13,0,0,0-1.43.78L12,545h2.82L16,543a3,3,0,0,1,1-1,120.66,120.66,0,0,1,19,0,3,3,0,0,1,1,1l4,5c0.14,0.19.38,0.64,0,.59C33.34,548.2,26.73,548,21,548H19a13.15,13.15,0,0,1,5,10,15,15,0,0,1-1.23,6H39v1a1,1,0,0,0,1,1h6a1,1,0,0,0,1-1V553.5c0-1.33,0-2.52-1-3.52l-1-.67,2-.32a1,1,0,0,0,1-1.11ZM45,553a2.33,2.33,0,0,1-2,2H38a0.87,0.87,0,0,1-1-1v-1a1,1,0,0,1,1-1,44,44,0,0,1,5-1h1a1.06,1.06,0,0,1,1,1v1Z" transform="translate(0 -540)"/><path  d="M23.42,567.14l-3.1-3.28A10.78,10.78,0,1,0,15.67,568l3.14,3.32a2.22,2.22,0,0,0,3.08.12l1.41-1.28A2.11,2.11,0,0,0,23.42,567.14ZM3,558a8,8,0,1,1,8,8A8,8,0,0,1,3,558Z" transform="translate(0 -540)"/></svg>

	 <svg id="price-geometry" viewBox="0 0 38 48"><defs></defs><title>price-geometry</title><polygon  points="0 16 8 16 8 11 11 11 11 25 8 25 8 20 0 20 0 16.01 0 16"/><path  d="M30,611v3l8-5.5L30,603v3H13v-3l-8,5.5,8,5.5v-3H30Z" transform="translate(0 -566)"/><path  d="M29.93,568.32a2.83,2.83,0,0,0-2-1.6c-2.95-1-9.61-.92-12.63-0.09-1.08.3-2.34,1-2.34,2.19v29.44a2.77,2.77,0,0,0,.46,2.13c1.35,1.5,6.21,1.61,8.07,1.61s5.87-.15,7.49-1.19a1.89,1.89,0,0,0,1-1.62V568.83A1.94,1.94,0,0,0,29.93,568.32ZM20,601c-0.33,0-.85,0-1.18,0-0.77-2.52-1.6-6.11-3.82-7v-0.89c2.09,0.7,3.14,3.08,4,5.45v-2.31c-0.77-2.52-1.77-5.54-4-6.39V589c2.09,0.7,3.14,3.08,4,5.45v-2.31c-0.77-2.52-1.77-5.54-4-6.39v-0.89c2.09,0.7,3.14,3.08,4,5.45V588c-0.77-2.52-1.77-5.54-4-6.39v-0.89c2.09,0.7,3.14,3.08,4,5.45v-2.31c-0.77-2.52-1.77-5.54-4-6.39v-0.89c2.09,0.7,3.14,3.08,4,5.45v-2.31c-0.77-2.52-1.77-5.54-4-6.39v-0.89c2.09,0.7,3.14,3.08,4,5.45v-2.31c-0.77-2.52-1.77-5.54-4-6.39v-0.81c2,0.79,3.17,3.09,4,5.36v-2.31A24,24,0,0,0,17,567c0.22,0,.66,0,0.89,0A25,25,0,0,1,19,569.61V567c0.33,0,.67,0,1,0v34Zm2,0H21V567h1v34Zm6-31.81c-2.23.84-3.23,3.87-4,6.39v2.31c0.86-2.37,1.91-4.76,4-5.45v0.89c-2.23.84-3.23,3.87-4,6.39V582c0.86-2.37,1.91-4.76,4-5.45v0.89c-2.23.84-3.23,3.87-4,6.39v2.31c0.86-2.37,1.91-4.76,4-5.45v0.89c-2.23.84-3.23,3.87-4,6.39v2.31c0.86-2.37,1.91-4.76,4-5.45v0.89c-2.23.84-3.23,3.87-4,6.39v2.31c0.86-2.37,1.91-4.76,4-5.45v0.89c-2.23.84-3.23,3.87-4,6.39v2.31c0.86-2.37,1.91-4.76,4-5.45V594c-2.23.84-3.25,4.43-4,7-0.34,0-.67,0-1,0V567c0.32,0,.67,0,1,0v2.61a23.74,23.74,0,0,1,.92-2.61c0.23,0,.46,0,0.69,0A22.23,22.23,0,0,0,24,571.44v2.31c0.83-2.29,2-4.59,4-5.37h0A6.59,6.59,0,0,1,28,569.19Z" transform="translate(0 -566)"/></svg>


	 <svg id="price-tech-service" viewBox="0 0 48 48"><defs></defs><title>price-tech-service</title><path  d="M5,566H43a5,5,0,0,1,5,5v38a5,5,0,0,1-5,5H5a5,5,0,0,1-5-5V571a5,5,0,0,1,5-5H5Zm-1,3a1,1,0,0,0-1,1v40a1,1,0,0,0,1,1H44a1,1,0,0,0,1-1V570a1,1,0,0,0-1-1H4Zm5,40h9.05c1.5-2.5,3.19-6.22,4.87-8.55,2.66-3.67,5.22-5.74,7.72-6.67a10.07,10.07,0,0,0,6.57-5c0.74-1.34,2.55-6.1,1.44-7.49-0.32-.4-0.66-0.16-1,0.19l-4.51,4.77c-1.29,1.19-3.52.5-5-.64-1.72-1.32-3.43-4.21-2-6.25a13.47,13.47,0,0,1,2.17-2.17l3-2.78c0.7-.7.17-1.11-0.38-1.27-1.25-.38-4.38.47-6.7,1.33s-4.38,1.94-4.91,4.57c-0.44,2.16,0,4.78,0,7,0,3.33-1.36,7.28-4.29,12Z" transform="translate(0 -566)"/></svg>

	 <svg id="price-tyres" viewBox="0 0 56 44"><defs></defs><title>price-tyres</title><path  d="M22.16,568.66a21.3,21.3,0,0,1,4.13.54,1,1,0,0,0,1.4.38,21.17,21.17,0,0,1,3.85,1.61,1,1,0,0,0,1.25.73,21.54,21.54,0,0,1,3.31,2.57,1,1,0,0,0,1,1,21.76,21.76,0,0,1,2.54,3.34,1,1,0,0,0,.72,1.26A21.7,21.7,0,0,1,42,584a1,1,0,0,0,.37,1.41,21.91,21.91,0,0,1,.54,4.18,1,1,0,0,0,0,1.45,22,22,0,0,1-.54,4.18,1,1,0,0,0-.37,1.41,21.69,21.69,0,0,1-1.6,3.89,0.9,0.9,0,0,0-.7.58,43.17,43.17,0,0,1-4.11-3,16.27,16.27,0,0,0-14.12-24,16.23,16.23,0,0,0,0,32.47,16,16,0,0,0,12.66-6.25c-0.19-.15-0.33-0.27-0.41-0.35-0.68-.69.6-2.18,1.38-1.41,0.39,0.38,3,2.29,3.48,2.64,6.07,4.5,13.3.26,11.28-6.06-1.53-4.81-2.91-4-2.23-10.13h-2v-2.6a7.43,7.43,0,1,1,5.91,0V585H49.58c-0.78,5.62.72,5.13,2.12,9.53,2.42,7.59-5.93,13.54-13.22,9q-0.64.85-1.36,1.63a1,1,0,0,0-1,1,21.58,21.58,0,0,1-3.31,2.57,1,1,0,0,0-1.25.73,21.21,21.21,0,0,1-3.85,1.61,1,1,0,0,0-1.4.38,21.23,21.23,0,0,1-4.13.54,1,1,0,0,0-1.44,0,21.27,21.27,0,0,1-4.13-.54,1,1,0,0,0-1.4-.38,21.21,21.21,0,0,1-3.85-1.61,1,1,0,0,0-1.25-.73,21.55,21.55,0,0,1-3.31-2.57,1,1,0,0,0-1-1,21.75,21.75,0,0,1-2.54-3.34,1,1,0,0,0-.72-1.26,21.69,21.69,0,0,1-1.6-3.89,1,1,0,0,0-.37-1.41A21.9,21.9,0,0,1,0,591.06a1,1,0,0,0,0-1.45,22,22,0,0,1,.54-4.18A1,1,0,0,0,.91,584a21.65,21.65,0,0,1,1.6-3.89,1,1,0,0,0,.72-1.26,21.75,21.75,0,0,1,2.54-3.34,1,1,0,0,0,1-1,21.53,21.53,0,0,1,3.31-2.57,1,1,0,0,0,1.25-.73,21.23,21.23,0,0,1,3.85-1.61,1,1,0,0,0,1.4-.38,21.27,21.27,0,0,1,4.13-.54,1,1,0,0,0,1.44,0h0Zm26.41,1.18a5.67,5.67,0,1,0,5.61,5.67,5.64,5.64,0,0,0-5.61-5.67h0Zm0,1A4.6,4.6,0,0,0,44,575.51a4.65,4.65,0,0,0,.51,2.12,5,5,0,0,1-.09-0.95,4.38,4.38,0,0,1,4.07-4.55,3.31,3.31,0,0,1,2,.6l1.43-.38a4.54,4.54,0,0,0-3.34-1.46h0Zm1.08,2.56a2.29,2.29,0,0,0-1.77-.17,2.35,2.35,0,0,0-1.53,2.93,2.31,2.31,0,0,0,2.9,1.54,2.34,2.34,0,0,0,1.63-2.32l1.75-2.06-0.38-.62-2.6.69h0Zm-0.15,1.48a1.09,1.09,0,0,0-1.51-.35,1.12,1.12,0,0,0-.35,1.53,1.09,1.09,0,0,0,1.51.35,1.12,1.12,0,0,0,.35-1.53h0Zm-31,13.39a0.81,0.81,0,0,0-.77.57,0.82,0.82,0,0,0,0,.49,0.81,0.81,0,0,0,1,.53,0.81,0.81,0,0,0-.24-1.59h0Zm0.87,3.86a0.81,0.81,0,0,0-.77.57,0.82,0.82,0,0,0,0,.49,0.8,0.8,0,0,0,1,.53,0.81,0.81,0,0,0-.25-1.59h0Zm4.18,0a0.81,0.81,0,0,0-.77.57,0.82,0.82,0,0,0,.52,1,0.78,0.78,0,0,0,.49,0,0.81,0.81,0,0,0-.24-1.59h0Zm0.87-3.86a0.81,0.81,0,0,0-.77.57,0.82,0.82,0,0,0,.52,1,0.81,0.81,0,1,0,.24-1.59h0Zm-3-2.46a0.81,0.81,0,1,0,.77.57,0.81,0.81,0,0,0-.77-0.57h0Zm0,2.95A1.53,1.53,0,1,0,23,590.33a1.52,1.52,0,0,0-1.51-1.53h0Zm12.5-1.13a0.76,0.76,0,0,0-.91-0.21c-1.81.7-3.58,1.73-5.41,2.65a4.62,4.62,0,0,0-1.31.74,1.28,1.28,0,0,0-.33,1,4.65,4.65,0,0,0,.63,1.38c0.94,1.83,1.78,3.71,2.83,5.35a0.76,0.76,0,0,0,.86.37c3.35-1.14,5.69-8.4,3.63-11.3h0ZM23.11,577.46a0.77,0.77,0,0,0-.48.81c0.1,2,.52,4,0.82,6a4.7,4.7,0,0,0,.29,1.49,1.25,1.25,0,0,0,.86.63,4.56,4.56,0,0,0,1.49-.18c2-.34,4-0.56,5.91-1.07a0.77,0.77,0,0,0,.62-0.71c0-3.58-6.14-8.06-9.52-7h0Zm-3.32,0c-3.4-1.08-9.48,3.39-9.52,7a0.77,0.77,0,0,0,.62.71c1.87,0.51,3.9.73,5.91,1.07a4.57,4.57,0,0,0,1.49.18,1.25,1.25,0,0,0,.86-0.63,4.78,4.78,0,0,0,.29-1.49c0.3-2,.72-4.06.82-6a0.77,0.77,0,0,0-.48-0.81h0ZM9,587.67c-2.06,2.91.29,10.17,3.63,11.3a0.76,0.76,0,0,0,.86-0.37c1.06-1.64,1.89-3.52,2.83-5.35a4.65,4.65,0,0,0,.63-1.38,1.27,1.27,0,0,0-.33-1,4.61,4.61,0,0,0-1.31-.74c-1.83-.92-3.6-1.95-5.41-2.65a0.76,0.76,0,0,0-.91.21H9Zm6.61,14c2.11,2.87,9.66,2.87,11.76,0a0.77,0.77,0,0,0-.09-0.94c-1.22-1.52-2.73-2.91-4.16-4.38a4.64,4.64,0,0,0-1.1-1,1.25,1.25,0,0,0-1.06,0,4.7,4.7,0,0,0-1.1,1c-1.43,1.47-2.95,2.85-4.16,4.38a0.78,0.78,0,0,0-.09.94h0Zm5.88-26.06a14.72,14.72,0,0,0,0,29.44A14.72,14.72,0,0,0,21.44,575.61Z" transform="translate(0 -568)"/></svg>


	 <svg id="starter" viewBox="0 0 48 48"><defs></defs><title>starter</title><path  d="M13,535v3l20,8,2-2Zm28,26H37l-6,6v4ZM7,561l2-3L6,545H3Z" transform="translate(0 -532)"/><path  d="M42,544.25A8,8,0,1,0,47.75,554,8,8,0,0,0,42,544.25Zm0,8.24a2,2,0,1,1-1.44-2.43A2,2,0,0,1,41.94,552.49Z" transform="translate(0 -532)"/><path  d="M7.48,532.19a6,6,0,1,0,4.33,7.29A6,6,0,0,0,7.48,532.19Zm0.46,6.31a2,2,0,1,1-1.45-2.43A2,2,0,0,1,7.94,538.49Z" transform="translate(0 -532)"/><path  d="M18,559a9,9,0,1,0,9,9A9,9,0,0,0,18,559Zm0.61,2.43a1,1,0,1,1,.72,1.22A1,1,0,0,1,18.61,561.43Zm-6.49,9.3a1,1,0,1,1,.69-1.23A1,1,0,0,1,12.12,570.73Zm2-6.59a1,1,0,1,1,0-1.41A1,1,0,0,1,14.14,564.14Zm3.25,10.43a1,1,0,1,1-.72-1.22A1,1,0,0,1,17.39,574.57Zm3.51-5.83a3,3,0,1,1-2.17-3.65A3,3,0,0,1,20.91,568.74Zm2.39,4.51a1,1,0,1,1,0-1.41A1,1,0,0,1,23.29,573.25Zm1.13-6.06a1,1,0,1,1,.69-1.23A1,1,0,0,1,24.42,567.19Z" transform="translate(0 -532)"/><path  d="M21,556.37A12,12,0,1,0,29.63,571,12,12,0,0,0,21,556.37ZM18,578a10,10,0,1,1,10-10A10,10,0,0,1,18,578Z" transform="translate(0 -532)"/></svg>


	 <svg id="steering-wheel" viewBox="0 0 48 48"><defs></defs><title>steering-wheel</title><path d="M295.24,571.66a6.26,6.26,0,0,0-8.49,0,6.08,6.08,0,0,0,1.42,9.64,6,6,0,0,0,7.06-1.07A6.1,6.1,0,0,0,295.24,571.66Zm-2.92,7A3,3,0,1,1,294,576,3,3,0,0,1,292.32,578.7Z" transform="translate(-267 -552)"/><path  d="M308,558.63a25,25,0,0,0-33.94,0,24.4,24.4,0,0,0,0,34.27,23.83,23.83,0,0,0,33.94,0A24.4,24.4,0,0,0,308,558.63ZM277.45,589.5A19.59,19.59,0,0,1,272,579.33c-0.26-1.07.35-1.36,1.14-1.33a22.92,22.92,0,0,1,4.75.23c5.46,1,7.41,3.7,8.37,9.82,0.35,2.22.57,5.08,0.76,7A19.48,19.48,0,0,1,277.45,589.5Zm9.79-6.44A8.12,8.12,0,0,1,284.67,571H273.86c-1,.05-1.31-0.33-1-1.3a19.38,19.38,0,0,1,4.64-7.57C280.94,558.6,286,557,291,557s10.06,1.6,13.55,5.13a19.38,19.38,0,0,1,4.64,7.57c0.26,1-.09,1.35-1,1.3H297.33a8.1,8.1,0,0,1-2.57,12.06A8,8,0,0,1,287.24,583.06Zm17.31,6.44A19.48,19.48,0,0,1,295,595c0.19-1.88.41-4.73,0.76-7,1-6.12,2.92-8.78,8.37-9.82a22.92,22.92,0,0,1,4.75-.23c0.8,0,1.4.26,1.14,1.33A19.59,19.59,0,0,1,304.55,589.5Z" transform="translate(-267 -552)"/></svg>

</g>


<g id="contacts__city">
	
	<svg id="location" viewBox="0 0 38 56"><defs></defs><title>location-active</title><path  d="M19,554a17.22,17.22,0,0,1,17,16.67c0,13.07-12.62,29.12-17,34.29-4.38-5.17-17-21.2-17-34.25A17.23,17.23,0,0,1,19,554m0-2A19.26,19.26,0,0,0,0,570.67C0,587.39,19,608,19,608s19-20.62,19-37.33A19.26,19.26,0,0,0,19,552h0Z" transform="translate(0 -552)"/><path  d="M30.87,565.62a10.4,10.4,0,0,0-2.73-3.9,12.1,12.1,0,0,0-4-2.6A16.52,16.52,0,0,0,19,558H18.1a13.43,13.43,0,0,0-5.32,1.59,11.39,11.39,0,0,0-4.9,4.56,12.22,12.22,0,0,0-1.42,3.38,15.49,15.49,0,0,0-.47,3.9,11.1,11.1,0,0,0,.47,3.12q0.16,0.53.38,1.08a13.45,13.45,0,0,0,2.6,4.09,11.7,11.7,0,0,0,4.24,3.13,14.39,14.39,0,0,0,4.47,1.08c0.51,0,1,.07,1.55.07a12.26,12.26,0,0,0,6.23-1.72A12.92,12.92,0,0,0,32,571.14v-0.57A14.07,14.07,0,0,0,30.87,565.62Zm-4,11.65-6.54-1.42-2.26,2.37-2.37,2.45-0.61-6.61-6-3.07,6-2.7,0.93-6.62,2,2.21,2.48,2.72,6.54-1.15-3.32,5.87Z" transform="translate(0 -552)"/></svg>

	<svg id="map-nav" viewBox="0 0 30 45"><defs><style>.cls-1{fill:#263238;}.cls-2{fill:#ffcc05;}</style></defs><title>map-nav</title><path class="cls-1" d="M15,0A15.34,15.34,0,0,0,0,15C0,28.44,15,45,15,45S30,28.43,30,15A15.34,15.34,0,0,0,15,0Z"/><path class="cls-2" d="M24.13,10.86a8,8,0,0,0-2.1-3,9.31,9.31,0,0,0-3.11-2A12.71,12.71,0,0,0,15,5H14.31a10.33,10.33,0,0,0-4.09,1.22A8.76,8.76,0,0,0,6.45,9.73a9.4,9.4,0,0,0-1.09,2.6,11.91,11.91,0,0,0-.36,3,8.54,8.54,0,0,0,.36,2.4q0.12,0.41.29,0.83a10.35,10.35,0,0,0,2,3.15,9,9,0,0,0,3.26,2.41,11.07,11.07,0,0,0,3.44.83c0.39,0,.78,0,1.19,0a9.43,9.43,0,0,0,4.79-1.32A9.94,9.94,0,0,0,25,15.11V14.67A10.82,10.82,0,0,0,24.13,10.86Zm-3,9-5.07-1.1L14.31,20.6l-1.84,1.9L12,17.38,7.32,15,12,12.91l0.72-5.13,1.56,1.71L16.2,11.6l5.07-.89L18.7,15.26Z"/></svg>


</g>


<g id="accesories">
	
	<svg id="check"  viewBox="0 0 15 10"><defs></defs><title>check</title><rect  x="319" y="571" width="1" height="1" transform="translate(-566 329) rotate(-90)"/><rect  x="320" y="570" width="1" height="1" transform="translate(-564 329) rotate(-90)"/><rect  x="321" y="569" width="1" height="1" transform="translate(-562 329) rotate(-90)"/><rect  x="322" y="568" width="1" height="1" transform="translate(-560 329) rotate(-90)"/><rect  x="323" y="567" width="1" height="1" transform="translate(-558 329) rotate(-90)"/><rect  x="324" y="566" width="1" height="1" transform="translate(-556 329) rotate(-90)"/><rect  x="325" y="565" width="1" height="1" transform="translate(-554 329) rotate(-90)"/><rect  x="326" y="564" width="1" height="1" transform="translate(-552 329) rotate(-90)"/><rect  x="327" y="563" width="1" height="1" transform="translate(-550 329) rotate(-90)"/><rect  x="328" y="562" width="1" height="1" transform="translate(-548 329) rotate(-90)"/><rect  x="314" y="567" width="1" height="1" transform="translate(568 -309) rotate(90)"/><rect  x="315" y="568" width="1" height="1" transform="translate(570 -309) rotate(90)"/><rect  x="316" y="569" width="1" height="1" transform="translate(572 -309) rotate(90)"/><rect  x="317" y="570" width="1" height="1" transform="translate(574 -309) rotate(90)"/><rect  x="318" y="571" width="1" height="1" transform="translate(576 -309) rotate(90)"/></svg>

	<svg id="map_nav" viewBox="0 0 30 45"><defs><style>.cls-1{fill:#263238;}.cls-2{fill:#ffcc05;}</style></defs><title>map-nav</title><path class="cls-1" d="M15,0A15.34,15.34,0,0,0,0,15C0,28.44,15,45,15,45S30,28.43,30,15A15.34,15.34,0,0,0,15,0Z"/><path class="cls-2" d="M24.13,10.86a8,8,0,0,0-2.1-3,9.31,9.31,0,0,0-3.11-2A12.71,12.71,0,0,0,15,5H14.31a10.33,10.33,0,0,0-4.09,1.22A8.76,8.76,0,0,0,6.45,9.73a9.4,9.4,0,0,0-1.09,2.6,11.91,11.91,0,0,0-.36,3,8.54,8.54,0,0,0,.36,2.4q0.12,0.41.29,0.83a10.35,10.35,0,0,0,2,3.15,9,9,0,0,0,3.26,2.41,11.07,11.07,0,0,0,3.44.83c0.39,0,.78,0,1.19,0a9.43,9.43,0,0,0,4.79-1.32A9.94,9.94,0,0,0,25,15.11V14.67A10.82,10.82,0,0,0,24.13,10.86Zm-3,9-5.07-1.1L14.31,20.6l-1.84,1.9L12,17.38,7.32,15,12,12.91l0.72-5.13,1.56,1.71L16.2,11.6l5.07-.89L18.7,15.26Z"/></svg>

	
</g>

  
</svg>